HIERARCHY
ROOT Hips
{
	OFFSET 0.000000 0.000000 0.000000 
	CHANNELS 6 Xposition Yposition Zposition Yrotation Zrotation Xrotation 
	JOINT Lumbar
	{
		OFFSET 0.000000 0.000000 0.000000 
		CHANNELS 3 Zrotation Xrotation Yrotation
		JOINT Neck
		{
			OFFSET 0.000000 0.445665 0.000000 
			CHANNELS 3 Zrotation Xrotation Yrotation
			End Site
			{
				OFFSET 0.000000 0.227535 0.000000 
			}
		}
		JOINT RightShoulder
		{
			OFFSET 0.019635 0.377685 0.194865 
			CHANNELS 3 Zrotation Xrotation Yrotation
			JOINT RightElbow
			{
				OFFSET 0.000000 -0.243375 0.000000 
				CHANNELS 2 Zrotation Yrotation
				JOINT RightWrist
				{
					OFFSET 0.000000 -0.264825 0.000000 
					CHANNELS 2 Zrotation Xrotation
					End Site
					{
						OFFSET 0.006600 -0.176220 0.000990 
					}
				}
			}
		}
		JOINT LeftShoulder
		{
			OFFSET 0.019635 0.377685 -0.194865 
			CHANNELS 3 Zrotation Xrotation Yrotation
			JOINT LeftElbow
			{
				OFFSET 0.000000 -0.243375 0.000000 
				CHANNELS 2 Zrotation Yrotation
				JOINT LeftWrist
				{
					OFFSET 0.000000 -0.264825 0.000000 
					CHANNELS 2 Zrotation Xrotation
					End Site
					{
						OFFSET 0.006600 -0.176220 -0.000990 
					}
				}
			}
		}
	}
	JOINT RightHip
	{
		OFFSET 0.052140 -0.069960 0.075570 
		CHANNELS 3 Zrotation Xrotation Yrotation
		JOINT RightKnee
		{
			OFFSET 0.000000 -0.402270 0.000000 
			CHANNELS 1 Zrotation
			JOINT RightAnkle
			{
				OFFSET 0.000000 -0.404085 0.000000 
				CHANNELS 3 Zrotation Xrotation Yrotation
				End Site
				{
					OFFSET 0.204105 -0.089430 0.008415 
				}
			}
		}
	}
	JOINT LeftHip
	{
		OFFSET 0.052140 -0.069960 -0.075570 
		CHANNELS 3 Zrotation Xrotation Yrotation
		JOINT LeftKnee
		{
			OFFSET 0.000000 -0.402270 0.000000 
			CHANNELS 1 Zrotation
			JOINT LeftAnkle
			{
				OFFSET 0.000000 -0.404085 0.000000 
				CHANNELS 3 Zrotation Xrotation Yrotation
				End Site
				{
					OFFSET 0.204105 -0.089430 -0.008415 
				}
			}
		}
	}
}
MOTION
Frames: 28
Frame Time: 0.02
0.00211 0.00065 -0.00293 21.11256 -34.84134 -5.35072 58.17522 1.54112 -0.93419 -9.17623 -4.9768 -0.07984 170.36729 -73.15886 -44.537 13.85791 76.04454 0.60435 -8.47795 161.68701 73.21209 71.52986 10.75397 -76.10708 0.02884 10.02809 48.38696 -3.00476 -8.70349 -19.15971 -7.58425 -4.58269 -3.04953 52.79923 7.61972 3.77046 -24.37382 -10.71718 5.70016 3.99213
0.00117 0.00049 -0.00211 21.13261 -34.81932 -5.3524 58.04275 1.51564 -0.91233 -9.39198 -4.96431 -0.09176 169.58035 -73.34534 -45.21993 13.92308 76.44204 0.55245 -8.47507 161.09781 73.21833 72.15996 10.74631 -76.09766 0.059 10.00403 48.46802 -2.94185 -8.47352 -19.20004 -7.61258 -4.60426 -3.07049 52.85992 7.69068 3.99786 -24.37763 -10.70807 5.69387 3.98266
0.00022 0.00034 -0.0013 21.15262 -34.79726 -5.35407 57.91025 1.49018 -0.89046 -9.6076 -4.95188 -0.10366 168.79346 -73.53185 -45.90325 13.98804 76.83822 0.50081 -8.47198 160.50896 73.22488 72.78963 10.73858 -76.08865 0.08902 9.9798 48.54896 -2.87912 -8.24442 -19.24036 -7.64082 -4.62576 -3.09138 52.92049 7.76148 4.22454 -24.38144 -10.69902 5.68759 3.97321
-0.00073 0.00019 -0.00049 21.17262 -34.77529 -5.35575 57.77813 1.46478 -0.86866 -9.82278 -4.93944 -0.11554 168.00874 -73.71786 -46.58433 14.05299 77.23446 0.44909 -8.46906 159.92147 73.23117 73.41801 10.73095 -76.07934 0.1191 9.95577 48.62978 -2.81641 -8.01518 -19.28058 -7.66906 -4.64727 -3.11228 52.98099 7.83223 4.45125 -24.38524 -10.68994 5.68132 3.96377
-0.00167 4e-05 0.00033 21.19266 -34.75342 -5.35745 57.64615 1.43937 -0.84688 -10.03787 -4.92693 -0.12742 167.22437 -73.90359 -47.26452 14.11821 77.63213 0.39707 -8.46647 159.3338 73.23699 74.04628 10.7234 -76.06942 0.1493 9.93205 48.71072 -2.75352 -7.78501 -19.32081 -7.6974 -4.66886 -3.13326 53.0416 7.90312 4.67864 -24.38904 -10.68081 5.67504 3.9543
-0.00262 -0.00011 0.00115 21.21259 -34.73094 -5.35905 57.51254 1.4138 -0.82483 -10.25458 -4.91467 -0.13937 166.43199 -74.09169 -47.9546 14.18266 78.02517 0.34623 -8.46236 158.74231 73.24504 74.67888 10.71527 -76.0623 0.17889 9.90674 48.79165 -2.69111 -7.55819 -19.36129 -7.72544 -4.69018 -3.15397 53.10212 7.97373 4.90382 -24.39287 -10.67191 5.66877 3.9449
-0.00356 -0.00026 0.00195 21.23272 -34.7097 -5.36085 57.38249 1.3886 -0.80337 -10.46786 -4.90192 -0.15117 165.65789 -74.27489 -48.62287 14.24846 78.4269 0.2931 -8.46122 158.16014 73.24868 75.30195 10.70838 -76.0497 0.2098 9.88461 48.87246 -2.62783 -7.32486 -19.4012 -7.75403 -4.71201 -3.17519 53.16267 8.04481 5.13325 -24.39663 -10.66253 5.66248 3.93537
-0.00451 -0.00041 0.00277 21.25267 -34.68733 -5.36248 57.24891 1.36303 -0.78133 -10.68419 -4.88961 -0.16312 164.86458 -74.4625 -49.31339 14.31321 78.82101 0.24203 -8.45751 157.5676 73.25627 75.93403 10.70027 -76.04186 0.23929 9.85961 48.95348 -2.56534 -7.09758 -19.44168 -7.78213 -4.73337 -3.19594 53.22332 8.11547 5.35867 -24.40047 -10.65364 5.65621 3.92596
-0.00547 -0.00057 0.0036 21.27239 -34.66353 -5.36383 57.11184 1.33708 -0.7587 -10.90485 -4.87788 -0.17521 164.05638 -74.65609 -50.02336 14.37592 79.20436 0.19365 -8.44993 156.96891 73.2692 76.57676 10.69093 -76.04108 0.26785 9.83079 49.03439 -2.50383 -6.87742 -19.48273 -7.80961 -4.75416 -3.21613 53.28363 8.18563 5.57963 -24.40433 -10.64519 5.64994 3.91671
-0.00634 -0.00069 0.00434 21.2934 -34.64781 -5.36658 56.99736 1.31356 -0.73983 -11.10242 -4.86294 -0.18636 163.35959 -74.81707 -50.59817 14.44811 79.64527 0.13035 -8.46245 156.42519 73.25294 77.15719 10.68946 -76.00342 0.30419 9.823 49.11481 -2.4367 -6.61549 -19.52011 -7.84057 -4.77826 -3.2396 53.34454 8.25869 5.8276 -24.40785 -10.63373 5.64361 3.90655
-0.00742 -0.00089 0.00528 21.31171 -34.61512 -5.36651 56.83367 1.28477 -0.7128 -11.34746 -4.85472 -0.19958 162.41161 -75.04564 -51.47267 14.50173 79.96751 0.09815 -8.43395 155.75317 73.29726 77.86949 10.67086 -76.04115 0.32256 9.7715 49.19699 -2.38142 -6.44217 -19.56544 -7.86423 -4.79532 -3.2561 53.40501 8.32562 6.01772 -24.41224 -10.62892 5.63745 3.89833
-0.00902 -0.00127 0.00674 21.32247 -34.5348 -5.35747 56.54594 1.24247 -0.66497 -11.73431 -4.86564 -0.21771 160.89469 -75.47037 -53.0543 14.49092 79.93738 0.1517 -8.28078 154.8247 73.51648 78.94287 10.60886 -76.30727 0.30351 9.59368 49.2784 -2.35914 -6.51044 -19.63137 -7.8674 -4.79344 -3.25356 53.45767 8.37592 6.05552 -24.41784 -10.63995 5.6314 3.89514
-0.01085 -0.00173 0.0084 21.33063 -34.43769 -5.34587 56.20662 1.19474 -0.60872 -12.16653 -4.88318 -0.23805 159.10045 -75.96012 -54.95452 14.46302 79.79242 0.23398 -8.08898 153.74873 73.79397 80.14758 10.5288 -76.64473 0.26404 9.37337 49.36277 -2.34864 -6.66793 -19.70553 -7.86333 -4.78442 -3.24401 53.51125 8.4202 6.03469 -24.4245 -10.65801 5.62553 3.8939
-0.01261 -0.00216 0.01 21.33995 -34.34886 -5.33617 55.8839 1.14887 -0.55515 -12.57064 -4.89729 -0.25792 157.35798 -76.41426 -56.78902 14.453 79.71826 0.30595 -7.9224 152.67895 74.04033 81.29434 10.4549 -76.93594 0.22632 9.17637 49.44924 -2.33248 -6.78572 -19.77669 -7.86285 -4.7784 -3.23757 53.56852 8.46693 6.03564 -24.43145 -10.67456 5.61986 3.892
-0.01421 -0.00257 0.0115 21.34897 -34.25698 -5.32318 55.59055 1.10547 -0.50606 -13.0071 -4.9133 -0.27561 155.93972 -76.89768 -58.30577 14.40421 79.56785 0.37635 -7.72215 151.86948 74.31032 82.43927 10.39037 -77.28718 0.221 8.96148 49.52054 -2.31776 -6.90036 -19.84469 -7.86103 -4.77338 -3.23138 53.60783 8.51422 6.05429 -24.43523 -10.68439 5.61321 3.88932
-0.0162 -0.00305 0.01324 21.35847 -34.16781 -5.31666 55.22308 1.05572 -0.44609 -13.38616 -4.92677 -0.29826 153.76631 -77.33103 -60.54057 14.42714 79.54583 0.44432 -7.58443 150.47817 74.54001 83.61259 10.30109 -77.52841 0.14256 8.77491 49.62493 -2.30269 -7.0424 -19.92131 -7.86037 -4.76463 -3.22308 53.68555 8.55971 6.02559 -24.44575 -10.70939 5.60837 3.88854
-0.01917 -0.00372 0.01561 21.36591 -34.0878 -5.32649 54.66985 0.98891 -0.35423 -13.60194 -4.93307 -0.33509 149.70507 -77.64758 -64.84409 14.69487 79.93463 0.61003 -7.61456 147.55932 74.68478 84.88546 10.15591 -77.4645 -0.12532 8.66645 49.81367 -2.28505 -7.23987 -20.01896 -7.86391 -4.74705 -3.21009 53.86264 8.59436 5.85024 -24.47549 -10.77903 5.61086 3.89412
-0.02253 -0.00448 0.01822 21.37465 -34.0117 -5.34326 54.04261 0.91606 -0.25234 -13.75727 -4.93642 -0.37665 144.87526 -77.90378 -69.82803 15.02737 80.45149 0.75475 -7.71091 144.05406 74.77874 86.17089 9.98486 -77.28464 -0.46693 8.58914 50.03708 -2.26641 -7.46097 -20.12523 -7.86907 -4.72608 -3.19537 54.07974 8.62849 5.63406 -24.51177 -10.86299 5.61477 3.90128
-0.02574 -0.00521 0.02073 21.38543 -33.93527 -5.35836 53.44517 0.84651 -0.15772 -13.93603 -4.94003 -0.41537 140.30495 -78.16396 -74.39351 15.30232 80.89115 0.83174 -7.7872 140.78651 74.87007 87.41749 9.82049 -77.147 -0.78039 8.50549 50.24841 -2.24742 -7.67082 -20.22789 -7.87392 -4.70677 -3.18181 54.28254 8.66799 5.45755 -24.54452 -10.93732 5.61641 3.90663
-0.02882 -0.0059 0.02319 21.38507 -33.85161 -5.36738 52.86222 0.77436 -0.05175 -14.13315 -4.94801 -0.45708 136.0797 -78.52831 -79.4334 15.69552 81.40658 1.22242 -7.82273 137.62698 75.07456 88.81463 9.67725 -77.05506 -1.07419 8.39065 50.44319 -2.23231 -7.88813 -20.32913 -7.87647 -4.6865 -3.16631 54.46826 8.68671 5.19347 -24.57982 -11.02457 5.62474 3.91652
-0.03227 -0.00669 0.02582 21.4082 -33.78483 -5.39041 52.23208 0.70631 0.03332 -14.27746 -4.94661 -0.49366 130.98733 -78.65689 -83.63999 15.85786 81.79663 0.97133 -7.95571 134.11563 75.02737 89.89182 9.4837 -76.84074 -1.42336 8.3446 50.68209 -2.20863 -8.09159 -20.43579 -7.88458 -4.6678 -3.15467 54.69998 8.74729 5.09833 -24.61113 -11.08887 5.61971 3.91748
-0.03662 -0.00769 0.02884 21.49622 -33.75817 -5.45304 51.49079 0.65056 0.0542 -14.28724 -4.91587 -0.51508 123.42777 -78.17899 -85.39689 15.36821 81.8051 -1.1925 -8.37243 129.68645 74.32447 90.10687 9.16178 -76.30563 -1.93218 8.51381 51.02207 -2.16255 -8.27616 -20.5507 -7.90508 -4.65149 -3.15295 55.04102 8.9355 5.51926 -24.6319 -11.08072 5.57521 3.89185
-0.04133 -0.00878 0.03202 21.60768 -33.74949 -5.529 50.70455 0.59922 0.05448 -14.24644 -4.87661 -0.53115 115.07227 -77.45962 -86.28529 14.64403 81.68429 -3.97435 -8.87879 124.94106 73.36514 89.9664 8.78998 -75.65321 -2.4899 8.74353 51.40756 -2.10789 -8.44222 -20.67159 -7.93149 -4.63726 -3.15534 55.42845 9.16372 6.10482 -24.64807 -11.04998 5.51762 3.85746
-0.0459 -0.00983 0.03513 21.70832 -33.73631 -5.59718 49.93854 0.54624 0.06665 -14.23079 -4.84382 -0.54959 107.25348 -76.83141 -87.55985 14.02615 81.62587 -6.37785 -9.32484 120.39993 72.50482 90.00741 8.43763 -75.06134 -3.00833 8.92628 51.78025 -2.05608 -8.59808 -20.79268 -7.95708 -4.62415 -3.15678 55.79986 9.36574 6.58902 -24.66498 -11.03325 5.4675 3.82811
-0.05039 -0.01087 0.03824 21.81011 -33.70774 -5.67299 49.17106 0.49161 0.06816 -14.20372 -4.79964 -0.56849 98.66854 -76.28114 -88.90034 13.41083 81.55646 -9.19381 -9.85822 115.58214 71.7151 90.07932 8.09569 -74.4344 -3.59959 9.1992 52.1208 -2.00756 -8.82772 -20.90167 -7.97541 -4.60291 -3.15466 56.15132 9.6013 7.18264 -24.68774 -11.0013 5.41104 3.79435
-0.05513 -0.01197 0.04138 21.91454 -33.71548 -5.73584 48.39659 0.44139 0.0873 -14.18949 -4.77759 -0.58507 91.5009 -75.50999 -89.88088 12.73476 81.4776 -11.29696 -10.22712 111.27372 70.72016 89.85876 7.7234 -73.85477 -4.05205 9.28961 52.53873 -1.95157 -8.9061 -21.03727 -8.00953 -4.59825 -3.16048 56.55481 9.77687 7.58945 -24.69721 -10.99538 5.3646 3.76764
-0.06047 -0.01322 0.04455 22.02519 -33.8191 -5.76109 47.61743 0.40377 0.15614 -14.22068 -4.81539 -0.59661 88.44064 -74.20523 -90.10675 11.94087 81.40323 -11.28576 -10.14592 108.44743 69.20196 90.19613 7.25751 -73.43294 -4.08937 8.94048 53.15871 -1.86449 -8.50819 -21.24386 -8.09224 -4.64677 -3.1915 57.09089 9.77391 7.42765 -24.67041 -11.068 5.34937 3.76274
-0.06606 -0.01454 0.04775 22.13688 -33.95881 -5.77267 46.83271 0.37023 0.244 -14.26722 -4.87635 -0.60595 86.83679 -72.68391 -89.9692 11.09683 81.32312 -10.53756 -9.89149 106.14756 67.48888 90.04855 6.76852 -73.06582 -3.98855 8.39439 53.85494 -1.77221 -7.96924 -21.47696 -8.18957 -4.71059 -3.22966 57.67766 9.70984 7.07464 -24.63047 -11.16729 5.34457 3.76515
